<?xml version="1.0" encoding="UTF-8"?>
<svg xmlns="http://www.w3.org/2000/svg" viewBox="0 0 512 512" role="img" aria-label="Mindshift KI">
  <rect width="512" height="512" rx="96" fill="#0A1628"/>
  <g transform="translate(60 70) scale(1.1)">
    <!-- Flame: Mindset / Yin -->
    <g transform="translate(0 5)">
      <path d="M166.69,331.55C210.88,317.61 233.01,273.12 217.62,229.17C214.22,219.45 211.19,213.09 207.52,208.00C205.73,205.53 204.10,202.99 203.89,202.37C203.21,200.41 191.64,187.94 178.95,175.50C172.22,168.90 165.99,162.69 165.11,161.70C164.22,160.71 161.55,157.78 159.16,155.20C126.43,119.75 129.81,63.60 167.17,22.01C174.13,14.27 174.33,13.51 168.75,15.98C160.31,19.70 146.82,30.88 138.16,41.34C109.27,76.19 106.32,122.42 130.43,162.45C135.44,170.78 149.04,186.90 162.50,200.49C193.60,231.88 200.98,260.91 184.06,285.30C166.29,310.90 132.89,314.15 101.81,293.30C52.37,260.13 31.06,194.97 50.70,137.00C53.70,128.13 64.36,105.58 68.28,99.80C70.22,96.92 68.14,96.50 65.24,99.18C61.63,102.51 58.88,103.52 59.72,101.20C62.37,93.93 90.83,61.10 94.61,60.97C95.96,60.92 100.92,56.32 101.23,54.82C101.56,53.19 106.18,49.90 111.50,47.49C116.38,45.28 122.00,41.24 122.00,39.95C122.00,35.73 92.00,48.83 82.24,57.31C79.34,59.82 75.52,62.90 73.74,64.14C70.16,66.63 68.34,68.48 62.70,75.36C60.61,77.91 58.45,80.00 57.90,80.00C56.24,80.00 58.09,77.61 66.61,68.78C71.06,64.15 74.89,59.92 75.11,59.36C75.62,58.06 88.47,47.77 98.00,41.04C104.04,36.77 104.92,35.85 102.50,36.30C99.36,36.89 79.23,47.53 77.50,49.52C76.95,50.15 73.12,53.41 69.00,56.76C17.73,98.45 -0.43,182.13 28.02,245.55C34.53,260.05 34.16,259.38 40.83,269.16C42.57,271.73 44.00,274.21 44.00,274.67C44.00,276.44 62.29,296.85 70.20,303.90C100.25,330.67 136.51,341.06 166.69,331.55Z M166.28,285.75C171.45,279.30 173.00,274.29 173.00,264.04C173.00,245.87 166.20,234.37 139.88,208.00C106.61,174.68 98.95,159.14 94.78,116.50L94.49,113.50L93.17,115.82C87.15,126.44 85.89,152.48 90.60,168.71C97.32,191.82 107.79,205.93 139.72,234.92C157.06,250.66 162.61,261.96 161.72,279.75C161.15,291.28 161.48,291.72 166.28,285.75Z" fill="#F4F0E7" fill-rule="evenodd"/>
    </g>
    <!-- Network: Technology / Yang -->
    <g transform="translate(138 0)">
      <path d="M86.66,344.67C89.37,341.72 90.00,340.21 90.00,336.70C90.00,332.37 90.01,332.37 96.20,329.43C99.61,327.82 106.00,324.33 110.39,321.67L118.38,316.85L122.08,318.92C133.37,325.27 146.39,313.94 140.59,302.83C139.08,299.92 137.59,302.17 160.58,272.50L165.23,266.50L170.10,266.84C179.19,267.48 184.00,262.86 184.00,253.49C184.00,248.50 183.64,247.48 180.87,244.71L177.73,241.58L178.92,235.54C184.74,205.98 187.45,196.68 190.51,195.71C202.47,191.89 202.29,171.24 190.28,169.81C187.98,169.54 187.48,168.80 186.36,164.00C185.65,160.97 183.48,151.77 181.54,143.54C177.44,126.23 177.39,125.55 179.84,123.81C183.77,121.02 185.28,113.49 183.07,107.69C181.57,103.75 175.73,100.74 170.40,101.16L165.86,101.53L158.00,91.51C140.05,68.65 139.73,68.12 140.81,63.84C144.02,51.21 132.10,42.37 121.53,49.54C118.14,51.85 117.58,51.95 115.58,50.65C114.37,49.85 109.59,47.63 104.94,45.70C100.30,43.77 92.45,40.31 87.50,38.00C82.55,35.69 76.14,32.92 73.25,31.83C68.59,30.08 68.00,29.53 68.00,26.98C68.00,20.19 62.18,14.73 54.94,14.73C45.48,14.73 39.23,25.61 43.29,35.00C43.70,35.94 41.88,39.40 38.44,44.25C32.97,51.96 32.92,52.00 28.42,52.00C13.92,52.00 7.99,71.61 20.88,76.95L24.00,78.24L24.00,88.02L24.00,97.80L20.56,99.83C10.65,105.68 12.64,120.10 23.81,123.33C28.28,124.63 28.59,124.96 30.43,130.34L32.36,135.99L30.03,138.46C26.84,141.86 26.05,150.07 28.48,154.59C30.81,158.92 34.67,160.40 41.90,159.74C46.51,159.32 48.06,159.56 49.27,160.86C50.11,161.76 55.50,166.78 61.24,172.00L71.67,181.50L71.61,187.50C71.53,195.14 73.59,198.41 79.86,200.66L84.50,202.31L89.41,221.91C92.11,232.68 94.95,244.20 95.73,247.50C96.50,250.80 97.49,254.85 97.92,256.50C98.58,259.05 98.23,260.00 95.60,262.81C91.59,267.08 91.23,274.12 94.77,278.91L97.05,281.98L94.93,286.15C93.76,288.43 92.15,292.15 91.36,294.40C86.95,306.91 78.47,323.00 76.28,323.00C67.26,323.00 61.82,332.50 65.52,341.76C68.86,350.09 80.26,351.66 86.66,344.67Z" fill="#C1A355"/>
    </g>
    <circle cx="27" cy="181" r="14" fill="#C1A355"/>
    <circle cx="324" cy="182" r="17" fill="#F4F0E7"/>
  </g>
</svg>
