<?xml version="1.0" encoding="UTF-8"?>
<svg xmlns="http://www.w3.org/2000/svg" viewBox="0 0 1273 520" width="1273" height="520" role="img" aria-label="Mindshift KI — Mensch führt. KI folgt.">

  <defs>
    <style type="text/css"><![CDATA[
      @import url('https://fonts.googleapis.com/css2?family=Inter:wght@500;800&display=swap');
      .logo-text {
        font-family: 'Inter', -apple-system, BlinkMacSystemFont, 'Segoe UI', sans-serif;
        font-weight: 800;
        font-size: 120px;
        letter-spacing: 0;
      }
      .claim-text {
        font-family: 'Inter', -apple-system, BlinkMacSystemFont, 'Segoe UI', sans-serif;
        font-weight: 500;
        font-size: 54px;
        letter-spacing: 0.5px;
      }
    ]]></style>
  </defs>

  <title>Mindshift KI — Mensch führt. KI folgt.</title>
  <desc>Flamme (Mensch/Mindset) führt links, Neuronales Netz (KI) folgt rechts. Light-Variante für helle Hintergründe.</desc>

  <g transform="translate(84.5 78.5)">

    <!-- Yin-Yang axis -->
    <line x1="27" y1="181"
          x2="324" y2="182"
          stroke="#0A1628" stroke-width="1.5"
          stroke-linecap="round" opacity="0.32"/>

    <!-- Flame: Mindset / Yin -->
    <g transform="translate(0 5)">
      <path d="M166.69,331.55C210.88,317.61 233.01,273.12 217.62,229.17C214.22,219.45 211.19,213.09 207.52,208.00C205.73,205.53 204.10,202.99 203.89,202.37C203.21,200.41 191.64,187.94 178.95,175.50C172.22,168.90 165.99,162.69 165.11,161.70C164.22,160.71 161.55,157.78 159.16,155.20C126.43,119.75 129.81,63.60 167.17,22.01C174.13,14.27 174.33,13.51 168.75,15.98C160.31,19.70 146.82,30.88 138.16,41.34C109.27,76.19 106.32,122.42 130.43,162.45C135.44,170.78 149.04,186.90 162.50,200.49C193.60,231.88 200.98,260.91 184.06,285.30C166.29,310.90 132.89,314.15 101.81,293.30C52.37,260.13 31.06,194.97 50.70,137.00C53.70,128.13 64.36,105.58 68.28,99.80C70.22,96.92 68.14,96.50 65.24,99.18C61.63,102.51 58.88,103.52 59.72,101.20C62.37,93.93 90.83,61.10 94.61,60.97C95.96,60.92 100.92,56.32 101.23,54.82C101.56,53.19 106.18,49.90 111.50,47.49C116.38,45.28 122.00,41.24 122.00,39.95C122.00,35.73 92.00,48.83 82.24,57.31C79.34,59.82 75.52,62.90 73.74,64.14C70.16,66.63 68.34,68.48 62.70,75.36C60.61,77.91 58.45,80.00 57.90,80.00C56.24,80.00 58.09,77.61 66.61,68.78C71.06,64.15 74.89,59.92 75.11,59.36C75.62,58.06 88.47,47.77 98.00,41.04C104.04,36.77 104.92,35.85 102.50,36.30C99.36,36.89 79.23,47.53 77.50,49.52C76.95,50.15 73.12,53.41 69.00,56.76C17.73,98.45 -0.43,182.13 28.02,245.55C34.53,260.05 34.16,259.38 40.83,269.16C42.57,271.73 44.00,274.21 44.00,274.67C44.00,276.44 62.29,296.85 70.20,303.90C100.25,330.67 136.51,341.06 166.69,331.55Z M166.28,285.75C171.45,279.30 173.00,274.29 173.00,264.04C173.00,245.87 166.20,234.37 139.88,208.00C106.61,174.68 98.95,159.14 94.78,116.50L94.49,113.50L93.17,115.82C87.15,126.44 85.89,152.48 90.60,168.71C97.32,191.82 107.79,205.93 139.72,234.92C157.06,250.66 162.61,261.96 161.72,279.75C161.15,291.28 161.48,291.72 166.28,285.75Z M54.91,109.50C56.65,106.11 57.97,104.45 57.98,105.64C57.99,106.27 57.07,107.84 55.94,109.14C54.33,110.99 54.11,111.07 54.91,109.50Z M48.00,92.31C48.01,91.86 49.15,90.15 50.55,88.50L53.09,85.50L51.55,88.69C50.04,91.81 48.00,93.90 48.00,92.31Z" fill="#0A1628" fill-rule="evenodd"/>
    </g>

    <!-- Network: Technology / Yang -->
    <g transform="translate(138 0)">
      <path d="M86.66,344.67C89.37,341.72 90.00,340.21 90.00,336.70C90.00,332.37 90.01,332.37 96.20,329.43C99.61,327.82 106.00,324.33 110.39,321.67L118.38,316.85L122.08,318.92C133.37,325.27 146.39,313.94 140.59,302.83C139.08,299.92 137.59,302.17 160.58,272.50L165.23,266.50L170.10,266.84C179.19,267.48 184.00,262.86 184.00,253.49C184.00,248.50 183.64,247.48 180.87,244.71L177.73,241.58L178.92,235.54C184.74,205.98 187.45,196.68 190.51,195.71C202.47,191.89 202.29,171.24 190.28,169.81C187.98,169.54 187.48,168.80 186.36,164.00C185.65,160.97 183.48,151.77 181.54,143.54C177.44,126.23 177.39,125.55 179.84,123.81C183.77,121.02 185.28,113.49 183.07,107.69C181.57,103.75 175.73,100.74 170.40,101.16L165.86,101.53L158.00,91.51C140.05,68.65 139.73,68.12 140.81,63.84C144.02,51.21 132.10,42.37 121.53,49.54C118.14,51.85 117.58,51.95 115.58,50.65C114.37,49.85 109.59,47.63 104.94,45.70C100.30,43.77 92.45,40.31 87.50,38.00C82.55,35.69 76.14,32.92 73.25,31.83C68.59,30.08 68.00,29.53 68.00,26.98C68.00,20.19 62.18,14.73 54.94,14.73C45.48,14.73 39.23,25.61 43.29,35.00C43.70,35.94 41.88,39.40 38.44,44.25C32.97,51.96 32.92,52.00 28.42,52.00C13.92,52.00 7.99,71.61 20.88,76.95L24.00,78.24L24.00,88.02L24.00,97.80L20.56,99.83C10.65,105.68 12.64,120.10 23.81,123.33C28.28,124.63 28.59,124.96 30.43,130.34L32.36,135.99L30.03,138.46C26.84,141.86 26.05,150.07 28.48,154.59C30.81,158.92 34.67,160.40 41.90,159.74C46.51,159.32 48.06,159.56 49.27,160.86C50.11,161.76 55.50,166.78 61.24,172.00L71.67,181.50L71.61,187.50C71.53,195.14 73.59,198.41 79.86,200.66L84.50,202.31L89.41,221.91C92.11,232.68 94.95,244.20 95.73,247.50C96.50,250.80 97.49,254.85 97.92,256.50C98.58,259.05 98.23,260.00 95.60,262.81C91.59,267.08 91.23,274.12 94.77,278.91L97.05,281.98L94.93,286.15C93.76,288.43 92.15,292.15 91.36,294.40C86.95,306.91 78.47,323.00 76.28,323.00C67.26,323.00 61.82,332.50 65.52,341.76C68.86,350.09 80.26,351.66 86.66,344.67Z M85.56,326.10C85.26,325.60 86.53,321.89 88.40,317.85C94.03,305.67 101.67,288.61 102.27,286.89C102.60,285.95 104.48,285.02 106.84,284.64C112.45,283.74 116.85,279.77 117.63,274.91C117.97,272.76 118.76,270.99 119.38,270.99C120.00,270.98 121.51,270.70 122.75,270.37C125.00,269.77 125.00,269.79 125.00,282.36L125.00,294.95L122.15,296.42C118.34,298.39 116.09,302.04 115.35,307.46L114.74,311.93L105.66,316.62C100.66,319.20 94.56,322.59 92.09,324.16C87.24,327.23 86.41,327.48 85.56,326.10Z M131.67,282.34C131.02,269.54 131.50,267.00 134.60,267.00C135.34,267.00 141.14,265.58 147.48,263.84C159.70,260.48 161.54,260.58 158.43,264.43C157.37,265.75 153.66,270.48 150.19,274.94C140.54,287.33 134.01,295.00 133.12,295.00C132.67,295.00 132.02,289.30 131.67,282.34Z M114.73,262.50C113.75,261.16 111.16,259.53 108.96,258.87C106.26,258.06 104.81,256.99 104.52,255.59C103.15,249.14 92.80,206.97 91.88,204.15C90.52,199.93 91.93,197.98 94.83,200.10C95.88,200.87 99.41,203.37 102.66,205.64C110.97,211.46 111.36,212.10 111.12,219.30C110.85,226.90 114.54,233.76 120.12,236.02C124.89,237.95 124.97,238.19 124.98,251.20L125.00,262.91L121.25,263.95C116.46,265.28 116.80,265.35 114.73,262.50Z M131.00,249.08C131.00,240.97 131.36,237.00 132.10,237.00C132.70,237.00 134.78,236.25 136.72,235.33C138.97,234.26 140.68,233.99 141.47,234.58C142.87,235.63 154.37,244.73 157.16,247.00C158.61,248.18 158.83,249.14 158.19,251.50C157.37,254.50 151.71,256.59 133.75,260.55L131.00,261.16L131.00,249.08Z M153.50,235.53C148.55,231.49 144.66,227.58 144.85,226.84C145.04,226.10 145.19,222.70 145.17,219.27L145.15,213.04L156.82,205.80C163.25,201.81 170.26,197.30 172.40,195.78C181.36,189.40 181.85,191.79 176.46,215.59C173.98,226.54 171.73,236.51 171.46,237.74C171.03,239.67 165.41,243.18 163.13,242.93C162.78,242.90 158.45,239.56 153.50,235.53Z M139.08,207.07C137.74,206.22 140.30,198.72 149.54,176.50C150.23,174.85 151.28,172.26 151.87,170.75L152.96,168.00L159.23,171.57C162.68,173.54 167.41,176.04 169.75,177.12C173.71,178.96 174.00,179.37 174.00,183.08C174.00,186.97 173.80,187.19 166.25,191.96C161.99,194.65 154.63,199.36 149.90,202.42C140.38,208.60 141.04,208.31 139.08,207.07Z M106.44,200.24L97.37,193.50L97.53,188.12L97.69,182.74L108.06,174.45C117.86,166.62 118.56,166.24 120.96,167.44C127.70,170.83 136.27,170.33 141.09,166.27C144.02,163.80 147.74,163.79 146.67,166.26C143.03,174.66 134.47,195.47 133.31,198.75C131.84,202.93 131.73,203.00 127.16,203.00C124.27,203.01 121.26,203.77 119.23,205.00C117.43,206.10 115.85,207.00 115.73,206.99C115.60,206.98 111.42,203.95 106.44,200.24Z M91.22,176.75C90.51,175.88 90.60,174.27 91.53,171.50C92.27,169.30 93.56,163.68 94.40,159.00C97.33,142.66 97.65,142.32 106.35,146.30C111.37,148.60 111.75,149.03 112.40,153.13C112.78,155.53 113.32,158.42 113.60,159.54C114.00,161.11 113.01,162.35 109.31,164.95C106.66,166.81 101.95,170.50 98.83,173.16C92.51,178.55 92.65,178.49 91.22,176.75Z M73.84,174.17C72.93,173.25 67.44,168.26 61.65,163.07C52.94,155.27 51.28,153.34 52.06,151.89C52.58,150.92 53.00,148.76 53.00,147.08C53.00,141.78 59.57,138.25 65.76,140.23C71.06,141.92 70.35,140.43 74.37,158.50C78.52,177.20 78.46,178.81 73.84,174.17Z M165.76,167.64C160.41,164.82 156.02,161.97 156.01,161.32C156.00,160.18 157.02,157.59 164.56,139.50C166.39,135.10 168.17,130.49 168.51,129.25C168.86,128.01 169.55,127.00 170.05,127.00C170.55,127.00 171.19,128.01 171.47,129.25C171.75,130.49 173.15,136.68 174.58,143.00C176.02,149.32 177.80,157.55 178.55,161.27C179.30,165.00 180.19,168.50 180.54,169.06C181.40,170.46 179.12,173.02 177.13,172.89C176.23,172.84 171.12,170.47 165.76,167.64Z M82.52,164.50C81.53,160.10 79.88,152.92 78.84,148.54L76.96,140.58L79.35,138.20L81.73,135.82L85.80,137.90C88.03,139.04 90.09,140.33 90.36,140.77C90.89,141.63 89.09,151.81 86.17,164.50L84.32,172.50L82.52,164.50Z M147.54,154.66C147.88,152.82 147.64,149.39 147.01,147.03C145.73,142.28 147.17,140.08 156.37,132.73L160.24,129.64L159.50,133.00C159.09,134.85 156.79,140.72 154.38,146.05C151.97,151.38 150.00,156.25 150.00,156.87C150.00,157.49 149.30,158.00 148.45,158.00C147.24,158.00 147.05,157.28 147.54,154.66Z M109.00,140.42C105.97,139.04 102.71,137.66 101.75,137.34C99.70,136.67 99.58,134.51 101.14,126.42C102.96,116.93 105.39,115.77 108.69,122.79C109.64,124.83 112.16,129.28 114.28,132.68C117.52,137.87 117.96,139.20 117.04,140.93C115.67,143.48 115.73,143.48 109.00,140.42Z M46.00,136.50C44.62,135.77 42.30,134.71 40.84,134.15C38.54,133.26 35.00,125.67 35.00,121.63C35.00,118.14 50.03,121.38 56.75,126.33C59.41,128.28 58.19,132.80 54.27,135.46C50.09,138.30 49.54,138.37 46.00,136.50Z M136.50,136.32C134.30,135.54 130.55,135.03 128.16,135.20L123.83,135.50L117.90,125.23C112.08,115.15 112.00,114.92 113.65,112.40C115.03,110.30 115.89,109.94 118.42,110.38C120.11,110.68 128.47,111.85 137.00,112.99C157.67,115.73 157.70,115.74 158.37,118.31C158.83,120.06 157.40,122.07 151.22,128.32C141.71,137.95 141.46,138.09 136.50,136.32Z M88.23,131.99C84.45,130.30 84.00,129.74 84.00,126.67C84.00,123.91 83.18,122.50 79.89,119.52L75.78,115.80L76.43,106.15C77.93,84.14 79.17,82.87 88.16,94.21C90.93,97.70 91.03,98.15 89.92,101.87C88.42,106.86 89.23,110.05 93.09,114.45L96.16,117.94L94.56,125.65C92.64,134.95 93.32,134.27 88.23,131.99Z M49.80,116.25C36.24,110.72 36.62,107.40 52.00,96.74C54.48,95.03 58.55,91.91 61.06,89.81C65.94,85.74 68.06,85.16 69.91,87.40C71.31,89.08 69.57,114.30 68.03,114.82C67.50,115.00 65.46,116.24 63.49,117.57C59.20,120.48 60.44,120.60 49.80,116.25Z M145.50,107.49C141.65,106.79 133.49,105.63 127.36,104.92L116.22,103.63L114.61,99.98C112.43,95.05 112.46,94.92 116.87,87.71C119.00,84.23 121.03,80.51 121.39,79.44C122.82,75.13 125.41,73.17 130.11,72.83C134.61,72.51 134.83,72.63 138.56,77.50C145.99,87.19 157.51,102.29 158.77,103.99C162.30,108.74 158.21,109.82 145.50,107.49Z M32.52,98.64C30.94,97.49 30.67,95.89 30.67,87.99L30.67,78.70L35.08,74.83C39.87,70.63 39.33,70.70 52.00,72.93C61.03,74.52 61.81,74.83 62.54,77.12C63.33,79.63 61.21,82.14 54.50,86.65C51.75,88.50 46.66,92.26 43.19,95.01C36.41,100.38 35.38,100.73 32.52,98.64Z M91.31,87.61C87.41,82.79 87.18,82.15 87.97,78.63C88.97,74.21 88.46,74.70 93.50,73.33C95.70,72.73 101.44,71.07 106.27,69.62C120.29,65.43 121.32,66.43 114.51,77.64C112.03,81.73 110.00,85.39 110.00,85.79C109.98,88.51 105.14,91.83 100.50,92.29L95.50,92.80L91.31,87.61Z M60.89,68.56C60.62,68.28 57.04,67.37 52.94,66.53C48.85,65.69 44.49,64.77 43.26,64.49C41.86,64.16 40.43,62.56 39.47,60.27L37.93,56.58L43.64,48.25C47.41,42.75 49.83,40.11 50.76,40.46C51.53,40.76 53.48,41.00 55.08,41.00C56.75,41.00 58.00,41.54 58.00,42.25C58.00,42.94 60.12,47.92 62.71,53.33C67.18,62.66 67.35,63.29 65.93,65.82C64.52,68.33 62.02,69.69 60.89,68.56Z M85.19,64.88C83.32,63.21 80.41,61.88 77.75,61.49C73.46,60.84 73.31,60.69 70.56,54.16C69.01,50.50 66.90,45.67 65.87,43.43C62.32,35.72 63.92,34.66 72.87,38.80C80.48,42.32 97.17,49.68 107.75,54.19C118.86,58.92 118.07,59.88 99.02,64.82L88.25,67.61L85.19,64.88Z" fill="#C1A355" fill-rule="evenodd"/>
    </g>

    <!-- Gold seed inside the flame's left curl (Yin carries Yang) -->
    <circle cx="27" cy="181" r="12" fill="#C1A355"/>

    <!-- Navy seed replacing a network node (Yang carries Yin) -->
    <circle cx="324" cy="182" r="15" fill="#0A1628"/>

  </g>

  <!-- Wordmark + Claim: alle linksbündig, Block flush mit Symbol-Kanten -->
  <g class="logo-text">
    <text x="460.5" y="178" fill="#C1A355">Mindshift</text>
    <text x="460.5" y="316" fill="#0A1628">KI</text>
  </g>
  <g class="claim-text">
    <text x="460.5" y="415">
      <tspan fill="#C1A355">Mensch führt.</tspan><tspan fill="#0A1628"> KI folgt.</tspan>
    </text>
  </g>
</svg>
